<svg xmlns="http://www.w3.org/2000/svg" width="1024" height="1024" viewBox="0 0 1024 1024"><rect width="1024" height="1024" rx="200" fill="#faf9f5"/><path fill="#d97757" d="m578.286 158.75 7.227.018 74.329 414.737 41.257 225.243c3.954 22.261 8.285 44.26 11.943 66.613l-68.86.063c-14.96-.016-30.601.185-45.516-.251-1.171-14.284-5.184-35.37-7.234-50.122l-19.394-133.468c-27.996-.693-56.449.405-84.512-.118-10.451-.195-22.589-.472-32.978.117-1.115 1.076-.866 1.754-1.207 3.659l-18.748 129.71c-2.396 16.835-5.201 33.143-7.238 50.065-37.876.438-75.756.444-113.632.018 1.153-8.878 4.262-22.739 5.984-31.901l9.845-53.385 19.465-106.098 66.377-358.011 19.485-103.903c2.932-15.876 7.452-37.141 9.347-52.888l69.742.103q32.16.194 64.318-.201"/><path fill="#faf9f5" d="M514.262 274.854c.985.933 3.098 19.747 3.459 22.299l7.727 54.32 22.041 150.851a3865 3865 0 0 0 12.346 85.081c-15.172.243-30.872.028-46.085.014l-46.378.014c1.514-14.342 4.074-28.823 6.108-43.109l16.786-113.81a7987 7987 0 0 1 15.792-105.093c2.309-14.684 4.944-36.683 8.204-50.567"/><path fill="#141413" d="M761.887 315.318c2.687.947 189.377 191.315 207.411 209.471-12.422 13.322-27.017 27.038-39.943 40.117L803.33 691.683c-13.438 13.656-28.142 27.592-41.138 41.442l-.467.1c-8.169-8.759-17.734-17.918-26.249-26.497a3009 3009 0 0 0-39.781-40.113c45.072-47.562 93.555-94.509 139.486-141.659-3.982-4.516-10.549-10.647-14.953-15.028l-28.167-28.199-97.717-98.621c6.204-6.741 15.776-15.711 22.438-22.412z"/><path fill="#141413" d="M262.953 315.886c2.745 2.027 16.092 15.912 19.154 18.996a6423 6423 0 0 0 47.627 48.059c-12.819 13.445-26.525 26.69-39.659 39.882l-63.947 64.625c-11.555 11.666-25.29 24.667-36.234 36.595 11.428 13.064 25.077 26.16 37.374 38.627l65.71 66.433c12.142 12.294 25.111 24.954 36.751 37.635-6.958 6.585-64.888 66.198-66.626 66.794-2.673-2.201-7.006-6.773-9.572-9.328l-17.168-17.168c-25.36-25.482-50.838-50.858-76.239-76.294l-49.929-50.328c-17.892-17.901-37.165-38.164-55.296-55.253 6.695-5.887 16.02-15.794 22.381-22.256l40.042-40.473z"/></svg>